<?xml version="1.0" encoding="UTF-8"?>
<svg xmlns="http://www.w3.org/2000/svg" xmlns:xlink="http://www.w3.org/1999/xlink" xmlns:svgjs="http://svgjs.com/svgjs" version="1.1" width="512" height="512" x="0" y="0" viewBox="0 0 64 64" style="enable-background:new 0 0 512 512" xml:space="preserve" class="">
  <g>
    <g xmlns="http://www.w3.org/2000/svg">
      <path d="m19 45h2v2h-2z" fill="#ffffff" data-original="#000000" style="" class=""/>
      <path d="m23 45h2v2h-2z" fill="#ffffff" data-original="#000000" style="" class=""/>
      <path d="m15 45h2v2h-2z" fill="#ffffff" data-original="#000000" style="" class=""/>
      <path d="m58 9h-28.743c-2.52-4.752-7.513-8-13.257-8-8.271 0-15 6.729-15 15 0 5.744 3.248 10.737 8 13.257v16.743c0 2.757 2.243 5 5 5h13.963c-.168 1.595-.997 3.041-2.296 4h-2.667c-2.757 0-5 2.243-5 5 0 1.654 1.346 3 3 3h30c1.654 0 3-1.346 3-3 0-2.757-2.243-5-5-5h-2.666c-1.299-.959-2.128-2.405-2.296-4h13.962c2.757 0 5-2.243 5-5v-32c0-2.757-2.243-5-5-5zm-43 21.949c.332.022.662.051 1 .051 4.893 0 9.232-2.365 11.972-6h7.028v-8h-4.051c.022-.332.051-.662.051-1s-.029-.668-.051-1h26.051v26h-42zm6.611-21.974c-.397-.317-.819-.604-1.266-.851l1.533-3.703c.925.472 1.787 1.048 2.569 1.718zm-3.114-1.615c-.484-.14-.983-.244-1.497-.301v-4.008c1.051.081 2.067.281 3.034.598zm-3.497-.301c-1.733.193-3.316.88-4.611 1.916l-2.836-2.836c2.036-1.747 4.614-2.871 7.447-3.088zm1 1.941c3.859 0 7 3.141 7 7s-3.141 7-7 7-7-3.141-7-7 3.141-7 7-7zm9.861-1.447c.671.782 1.246 1.643 1.718 2.569l-3.703 1.533c-.248-.447-.534-.869-.851-1.266zm3.088 7.447h-4.008c-.057-.514-.161-1.013-.301-1.497l3.711-1.537c.317.967.518 1.983.598 3.034zm-4.008 2h4.008c-.081 1.051-.281 2.067-.598 3.034l-3.711-1.537c.14-.484.244-.983.301-1.497zm5.757 2h2.302v4h-3.743c.658-1.242 1.152-2.583 1.441-4zm-27.698-3c0-3.225 1.187-6.173 3.139-8.447l2.836 2.836c-1.233 1.54-1.975 3.489-1.975 5.611 0 4.963 4.037 9 9 9 3.388 0 6.341-1.883 7.877-4.655l3.703 1.533c-2.152 4.22-6.529 7.122-11.58 7.122-7.168 0-13-5.832-13-13zm49 44c0 .552-.448 1-1 1h-30c-.552 0-1-.448-1-1 0-1.654 1.346-3 3-3h26c1.654 0 3 1.346 3 3zm-8.471-5h-15.058c.858-1.155 1.378-2.536 1.492-4h12.075c.114 1.464.634 2.845 1.491 4zm17.471-9c0 1.654-1.346 3-3 3h-44c-1.654 0-3-1.346-3-3v-15.875c.65.231 1.313.433 2 .573v10.302c0 1.103.897 2 2 2h42c1.103 0 2-.897 2-2v-26c0-1.103-.897-2-2-2h-26.302c-.14-.687-.342-1.35-.573-2h27.875c1.654 0 3 1.346 3 3z" fill="#ffffff" data-original="#000000" style="" class=""/>
      <path d="m47 25h8v-8h-8zm2-6h4v4h-4z" fill="#ffffff" data-original="#000000" style="" class=""/>
      <path d="m45 17h-8v8h8zm-2 6h-4v-4h4z" fill="#ffffff" data-original="#000000" style="" class=""/>
      <path d="m30 33h-6v2h-7v2h7v2h6v-2h25v-2h-25zm-2 4h-2v-2h2z" fill="#ffffff" data-original="#000000" style="" class=""/>
      <path d="m37 27h18v2h-18z" fill="#ffffff" data-original="#000000" style="" class=""/>
      <path d="m37 31h2v2h-2z" fill="#ffffff" data-original="#000000" style="" class=""/>
      <path d="m41 31h14v2h-14z" fill="#ffffff" data-original="#000000" style="" class=""/>
    </g>
  </g>
</svg>
